<svg id="visual" viewBox="0 0 900 600" width="900" height="600" xmlns="http://www.w3.org/2000/svg" xmlns:xlink="http://www.w3.org/1999/xlink" version="1.1"><path d="M736 600L733.5 585.7C731 571.3 726 542.7 719 514.2C712 485.7 703 457.3 710.7 428.8C718.3 400.3 742.7 371.7 753.5 343C764.3 314.3 761.7 285.7 752 257C742.3 228.3 725.7 199.7 713.2 171.2C700.7 142.7 692.3 114.3 702.7 85.8C713 57.3 742 28.7 756.5 14.3L771 0L900 0L900 14.3C900 28.7 900 57.3 900 85.8C900 114.3 900 142.7 900 171.2C900 199.7 900 228.3 900 257C900 285.7 900 314.3 900 343C900 371.7 900 400.3 900 428.8C900 457.3 900 485.7 900 514.2C900 542.7 900 571.3 900 585.7L900 600Z" fill="#f5c57a"></path><path d="M789 600L779.3 585.7C769.7 571.3 750.3 542.7 742.2 514.2C734 485.7 737 457.3 736.3 428.8C735.7 400.3 731.3 371.7 734.2 343C737 314.3 747 285.7 757.8 257C768.7 228.3 780.3 199.7 785.7 171.2C791 142.7 790 114.3 780 85.8C770 57.3 751 28.7 741.5 14.3L732 0L900 0L900 14.3C900 28.7 900 57.3 900 85.8C900 114.3 900 142.7 900 171.2C900 199.7 900 228.3 900 257C900 285.7 900 314.3 900 343C900 371.7 900 400.3 900 428.8C900 457.3 900 485.7 900 514.2C900 542.7 900 571.3 900 585.7L900 600Z" fill="#f6a64e"></path><path d="M824 600L824 585.7C824 571.3 824 542.7 821.8 514.2C819.7 485.7 815.3 457.3 807.2 428.8C799 400.3 787 371.7 781 343C775 314.3 775 285.7 782.8 257C790.7 228.3 806.3 199.7 815.7 171.2C825 142.7 828 114.3 821.2 85.8C814.3 57.3 797.7 28.7 789.3 14.3L781 0L900 0L900 14.3C900 28.7 900 57.3 900 85.8C900 114.3 900 142.7 900 171.2C900 199.7 900 228.3 900 257C900 285.7 900 314.3 900 343C900 371.7 900 400.3 900 428.8C900 457.3 900 485.7 900 514.2C900 542.7 900 571.3 900 585.7L900 600Z" fill="#f98229"></path><path d="M860 600L859.5 585.7C859 571.3 858 542.7 852.8 514.2C847.7 485.7 838.3 457.3 837.2 428.8C836 400.3 843 371.7 846 343C849 314.3 848 285.7 851.5 257C855 228.3 863 199.7 866.7 171.2C870.3 142.7 869.7 114.3 861.8 85.8C854 57.3 839 28.7 831.5 14.3L824 0L900 0L900 14.3C900 28.7 900 57.3 900 85.8C900 114.3 900 142.7 900 171.2C900 199.7 900 228.3 900 257C900 285.7 900 314.3 900 343C900 371.7 900 400.3 900 428.8C900 457.3 900 485.7 900 514.2C900 542.7 900 571.3 900 585.7L900 600Z" fill="#fc540c"></path></svg>